<?xml version="1.0" encoding="UTF-8" standalone="no"?>
<svg
   xmlns:dc="http://purl.org/dc/elements/1.1/"
   xmlns:cc="http://creativecommons.org/ns#"
   xmlns:rdf="http://www.w3.org/1999/02/22-rdf-syntax-ns#"
   xmlns:svg="http://www.w3.org/2000/svg"
   xmlns="http://www.w3.org/2000/svg"
   xmlns:sodipodi="http://sodipodi.sourceforge.net/DTD/sodipodi-0.dtd"
   xmlns:inkscape="http://www.inkscape.org/namespaces/inkscape"
   width="512"
   height="512"
   viewBox="0 0 135.46666 135.46667"
   version="1.1"
   id="svg2642"
   inkscape:version="1.0.2-2 (e86c870879, 2021-01-15)"
   sodipodi:docname="rybnik.svg">
  <defs
     id="defs2636">
    <clipPath
       id="clipPath22"
       clipPathUnits="userSpaceOnUse">
      <path
         id="path20"
         d="M 0,841 H 1190 V 0 H 0 Z" />
    </clipPath>
  </defs>
  <sodipodi:namedview
     id="base"
     pagecolor="#ffffff"
     bordercolor="#666666"
     borderopacity="1.0"
     inkscape:pageopacity="0.0"
     inkscape:pageshadow="2"
     inkscape:zoom="0.7"
     inkscape:cx="647.15919"
     inkscape:cy="528.23422"
     inkscape:document-units="mm"
     inkscape:current-layer="g18"
     inkscape:document-rotation="0"
     showgrid="false"
     units="px"
     inkscape:window-width="1560"
     inkscape:window-height="1032"
     inkscape:window-x="130"
     inkscape:window-y="0"
     inkscape:window-maximized="0" />
  <metadata
     id="metadata2639">
    <rdf:RDF>
      <cc:Work
         rdf:about="">
        <dc:format>image/svg+xml</dc:format>
        <dc:type
           rdf:resource="http://purl.org/dc/dcmitype/StillImage" />
        <dc:title></dc:title>
      </cc:Work>
    </rdf:RDF>
  </metadata>
  <g
     inkscape:label="Warstwa 1"
     inkscape:groupmode="layer"
     id="layer1">
    <g
       clip-path="url(#clipPath22)"
       id="g18"
       transform="matrix(0.64250265,0,0,-0.58574953,-133.2749,392.51597)">
      <g
         transform="matrix(2.5769232,0,0,2.7876069,257.24408,638.51967)"
         id="g1170">
        <path
           id="path1172"
           style="fill:#231f20;fill-opacity:1;fill-rule:evenodd;stroke:none"
           d="M 0,0 -1.704,2.844 H -3.461 V 0 h -3.066 v 9.438 h 5.215 c 2.832,0 4.366,-1.311 4.366,-3.16 V 6.016 C 3.054,4.849 2.451,3.892 1.297,3.355 L 3.29,0 Z m -3.461,4.823 h 1.678 c 1.245,0 1.743,0.551 1.743,1.193 v 0.262 c 0,0.629 -0.498,1.192 -1.743,1.192 h -1.678 z" />
      </g>
      <g
         transform="matrix(2.5769232,0,0,2.7876069,289.9965,657.5565)"
         id="g1174">
        <path
           id="path1176"
           style="fill:#231f20;fill-opacity:1;fill-rule:evenodd;stroke:none"
           d="m 0,0 -2.792,-6.187 c -0.931,-1.979 -2.084,-3.159 -4.784,-3.316 l -0.551,2.019 c 1.114,0.196 1.717,0.72 2.176,1.533 L -9.019,0 h 3.173 L -4.352,-3.447 -3.028,0 Z" />
      </g>
      <g
         transform="matrix(2.5769232,0,0,2.7876069,314.74527,648.31167)"
         id="g1178">
        <path
           id="path1180"
           style="fill:#231f20;fill-opacity:1;fill-rule:evenodd;stroke:none"
           d="m 0,0 v -0.196 c 0,-2.202 -1.638,-3.513 -3.565,-3.513 -0.93,0 -1.952,0.301 -2.556,1.101 l -0.498,-0.905 h -2.228 v 9.7 h 2.963 V 2.661 c 0.641,0.629 1.52,0.852 2.319,0.852 C -1.638,3.513 0,2.202 0,0 m -3.067,0 c 0,0.957 -0.563,1.573 -1.415,1.573 -0.551,0 -1.049,-0.276 -1.402,-0.695 v -1.953 c 0.353,-0.419 0.851,-0.695 1.402,-0.695 0.852,0 1.415,0.617 1.415,1.574 z" />
      </g>
      <g
         transform="matrix(2.5769232,0,0,2.7876069,339.19203,650.9061)"
         id="g1182">
        <path
           id="path1184"
           style="fill:#231f20;fill-opacity:1;fill-rule:evenodd;stroke:none"
           d="m 0,0 v -4.443 h -2.962 v 3.617 c 0,0.852 -0.354,1.167 -0.996,1.167 -0.604,0 -1.075,-0.276 -1.455,-0.629 v -4.155 h -2.962 v 6.829 h 2.228 l 0.498,-1.075 c 0.603,0.708 1.534,1.271 2.922,1.271 C -0.957,2.582 0,1.678 0,0" />
      </g>
      <path
         id="path1186"
         style="fill:#231f20;fill-opacity:1;fill-rule:evenodd;stroke:none;stroke-width:2.6802"
         d="m 343.03759,664.86285 h 7.63285 v -4.42116 h -7.63285 z m 0,-7.30635 h 7.63285 v -19.03656 h -7.63285 z" />
      <g
         transform="matrix(2.5769232,0,0,2.7876069,354.51521,665.55722)"
         id="g1188">
        <path
           id="path1190"
           style="fill:#231f20;fill-opacity:1;fill-rule:evenodd;stroke:none"
           d="M 0,0 H 2.962 V -5.111 L 5.295,-2.87 H 8.454 L 5.938,-5.309 8.546,-9.699 H 5.348 L 3.84,-7.313 2.962,-8.166 V -9.699 H 0 Z" />
      </g>
      <g
         transform="matrix(2.5769232,0,0,2.7876069,375.4125,612.17621)"
         id="g1192">
        <path
           id="path1194"
           style="fill:#a4c4e6;fill-opacity:1;fill-rule:evenodd;stroke:none"
           d="m 0,0 h -52.244 l 0.024,-33.064 c 0.194,-14.264 11.802,-25.766 26.112,-25.766 14.419,0 26.118,11.695 26.118,26.121 C 0.01,-32.525 0,0 0,0" />
      </g>
      <g
         transform="matrix(2.5769232,0,0,2.7876069,308.13316,446.6077)"
         id="g1196">
        <path
           id="path1198"
           style="fill:#231f20;fill-opacity:1;fill-rule:evenodd;stroke:none"
           d="m 0,0 c -7.063,0 -13.72,2.734 -18.745,7.697 -5.017,4.959 -7.836,11.572 -7.928,18.625 l -0.026,33.635 h 53.371 v -0.561 c 0,0 0.008,-32.527 0.008,-32.711 C 26.68,11.973 14.711,0 0,0 m -25.571,58.83 0.026,-32.5 C -25.364,12.435 -13.901,1.127 0,1.127 c 14.089,0 25.554,11.465 25.554,25.558 0,0.172 -0.011,27.831 -0.011,32.145 z" />
      </g>
      <g
         transform="matrix(2.5769232,0,0,2.7876069,355.38595,496.72469)"
         id="g1200">
        <path
           id="path1202"
           style="fill:#ffffff;fill-opacity:1;fill-rule:evenodd;stroke:none"
           d="m 0,0 c -0.847,-0.006 -1.719,-0.008 -2.375,-0.008 -1.099,0 -1.118,0.008 -1.15,0.018 -0.08,0.025 -0.134,0.109 -0.235,0.293 L -3.779,0.342 C -4.15,0.986 -4.551,1.865 -4.863,2.697 l -0.061,0.166 0.178,0.012 c 0.039,0 0.071,-0.004 0.12,-0.012 0.107,-0.017 0.293,-0.047 0.571,-0.029 0.567,0.033 1.076,0.389 1.516,1.049 0.252,0.377 0.395,0.758 0.449,1.199 0.059,0.459 -0.01,0.973 -0.19,1.414 -0.324,0.795 -0.925,1.33 -1.741,1.553 -0.288,0.078 -0.623,0.092 -1.035,0.092 L -7.443,8.139 -7.48,8.207 c -1.257,2.244 -2.747,4.479 -4.83,7.24 -1.779,2.369 -3.73,4.524 -5.571,6.498 -0.239,0.254 -0.488,0.512 -0.737,0.762 l -0.249,0.248 c -0.664,0.662 -1.345,1.346 -2.038,1.996 -3.455,3.238 -6.751,5.846 -10.086,7.969 -0.315,-0.024 -0.537,-0.029 -0.762,-0.025 -0.798,0.019 -1.462,0.214 -2.007,0.4 -0.713,0.244 -1.416,0.586 -2.143,1.041 -0.91,0.568 -1.789,1.291 -2.61,2.144 -0.193,0.196 -0.605,0.61 -0.849,0.483 -0.179,-0.094 -0.042,-0.434 -0.037,-0.447 l 0.071,-0.172 c 0.261,-0.617 0.322,-0.783 0.168,-0.862 l -0.027,-0.013 -0.042,-0.004 c -0.114,0 -0.244,0.111 -0.737,0.732 l -0.078,0.094 c -0.146,0.184 -0.264,0.254 -0.371,0.184 -0.261,-0.18 -0.334,-0.352 -0.41,-0.752 -0.098,-0.532 0.042,-1.051 0.179,-1.442 0.297,-0.869 0.758,-1.592 1.206,-2.26 0.983,-1.474 2.106,-2.816 3.071,-3.933 l 0.314,-0.361 c 0.96,-1.116 1.956,-2.268 2.992,-3.342 l 1.193,-1.24 c 0.755,-0.782 1.507,-1.563 2.259,-2.342 l 0.094,-0.104 -0.107,-0.09 c -0.41,-0.351 -0.725,-0.804 -0.9,-1.32 -0.201,-0.574 -0.257,-1.33 -0.142,-1.971 0.186,-1.052 0.737,-1.888 1.555,-2.355 l 0.047,-0.027 c 0.075,-0.043 0.231,-0.137 0.29,-0.137 0,0 0.046,0 0.195,0.055 1.692,0.582 1.961,1.705 1.997,2.162 0.032,0.382 0.01,0.662 0.005,0.767 -0.002,0.043 -0.002,0.055 -0.002,0.074 l 0.049,0.254 0.177,-0.181 c 0.054,-0.055 0.098,-0.176 0.199,-0.477 0.044,-0.137 0.112,-0.342 0.138,-0.383 1.412,-1.441 2.759,-2.845 4.185,-4.332 l 0.784,-0.82 -0.096,-0.094 c -0.595,-0.57 -1.183,-1.771 -0.869,-3.273 0.235,-1.108 0.897,-1.955 1.861,-2.387 1.152,0.285 1.87,1.025 2.195,2.256 0.059,0.291 0.078,0.551 0.078,0.551 l 0.024,0.293 0.206,-0.207 c 0.034,-0.041 0.045,-0.061 0.133,-0.498 0.028,-0.139 0.067,-0.325 0.083,-0.389 l 0.411,-0.412 c 0.644,-0.658 1.257,-1.283 1.914,-1.992 0.107,-0.12 0.222,-0.233 0.336,-0.342 0.111,-0.108 0.218,-0.215 0.323,-0.326 0.508,-0.545 1.057,-1.129 1.635,-1.705 0.018,-0.02 0.042,-0.041 0.069,-0.067 0.181,-0.17 0.291,-0.283 0.291,-0.394 0.002,-0.412 0.002,-0.819 0,-1.219 V 1.121 c 0.002,-0.207 -0.003,-0.414 -0.005,-0.621 -0.008,-0.373 -0.013,-0.76 0.005,-1.133 0.024,-0.441 0.158,-0.857 0.41,-1.269 0.466,-0.768 1.226,-1.227 2.077,-1.262 0.039,0 0.078,-0.002 0.117,-0.002 0.457,0 0.879,0.103 1.253,0.309 0.703,0.386 1.035,0.818 1.221,1.599 0.005,0.031 0.002,0.176 0,0.272 -0.008,0.158 -0.008,0.248 0.002,0.297 l 0.044,0.242 0.179,-0.168 c 0.338,-0.323 0.791,-0.869 1.12,-1.27 l 0.066,-0.084 v -6.306 c 1.203,-0.041 2.16,0.279 2.969,0.984 0.786,0.686 1.257,1.588 1.403,2.68 l 0.013,0.099 0.1,0.014 c 1.067,0.158 1.943,0.656 2.6,1.477 0.676,0.851 0.986,1.869 0.918,3.025 C 1.484,0.004 0.752,0 0,0" />
      </g>
      <g
         transform="matrix(2.5769232,0,0,2.7876069,318.89646,591.59586)"
         id="g1204">
        <path
           id="path1206"
           style="fill:#ffffff;fill-opacity:1;fill-rule:evenodd;stroke:none"
           d="m 0,0 c -0.075,-0.299 -0.104,-0.563 -0.098,-0.855 0.023,-1.069 0.743,-1.731 1.883,-1.731 0.168,0 0.347,0.014 0.529,0.043 l 0.245,0.037 0.061,0.242 c 0.093,0.385 0.08,0.811 -0.044,1.297 0.334,0.18 0.723,0.446 0.998,0.846 L 3.716,0.082 3.587,0.293 C 3.338,0.688 2.981,0.953 2.615,1.176 2.72,1.512 2.806,1.979 2.7,2.475 L 2.651,2.717 2.41,2.768 C 2.202,2.813 2,2.832 1.802,2.832 1.011,2.832 0.374,2.48 0.093,1.891 -0.137,1.396 -0.098,0.83 -0.021,0.439 -0.012,0.393 0.005,0.336 0.022,0.275 0.032,0.236 0.047,0.18 0.054,0.152 0.054,0.15 0.052,0.146 0.049,0.141 0.032,0.094 0.013,0.045 0,0" />
      </g>
      <g
         transform="matrix(2.5769232,0,0,2.7876069,366.78576,553.93057)"
         id="g1208">
        <path
           id="path1210"
           style="fill:#ffffff;fill-opacity:1;fill-rule:evenodd;stroke:none"
           d="M 0,0 -0.034,0.244 -0.275,0.309 C -0.651,0.408 -1.096,0.393 -1.579,0.27 -1.804,0.699 -2.077,1.027 -2.424,1.266 L -2.617,1.402 -2.824,1.281 C -3.218,1.051 -3.496,0.682 -3.721,0.311 -4.17,0.449 -4.609,0.48 -5.015,0.402 L -5.259,0.354 -5.31,0.109 c -0.185,-0.879 0.032,-1.693 0.567,-2.129 0.288,-0.234 0.724,-0.363 1.232,-0.363 0.286,0 0.579,0.041 0.838,0.119 0.025,-0.011 0.054,-0.021 0.083,-0.031 0.244,-0.076 0.5,-0.115 0.759,-0.115 0.508,0 0.981,0.154 1.297,0.424 C -0.2,-1.697 0.164,-1.121 0,0" />
      </g>
      <g
         transform="matrix(2.5769232,0,0,2.7876069,331.02602,561.0086)"
         id="g1212">
        <path
           id="path1214"
           style="fill:#ffffff;fill-opacity:1;fill-rule:evenodd;stroke:none"
           d="m 0,0 0.057,-0.189 0.19,-0.061 c 0.212,-0.07 0.446,-0.105 0.676,-0.105 0.481,0 0.879,0.156 1.118,0.435 C 2.095,0.145 2.134,0.207 2.168,0.262 2.21,0.26 2.256,0.26 2.303,0.258 c 0.049,0 0.102,0 0.148,-0.002 0,-0.002 0.005,-0.004 0.005,-0.004 C 2.495,0.184 2.547,0.1 2.63,0.016 c 0.241,-0.241 0.617,-0.371 1.059,-0.371 0.232,0 0.466,0.035 0.681,0.103 l 0.193,0.063 0.054,0.195 C 4.773,0.568 4.79,1.389 4.326,1.846 4.275,1.896 4.214,1.939 4.139,1.984 4.129,1.99 4.121,1.994 4.111,2.002 4.121,2.049 4.129,2.094 4.134,2.135 4.139,2.178 4.141,2.219 4.144,2.258 4.146,2.275 4.148,2.291 4.148,2.305 4.183,2.326 4.219,2.352 4.256,2.381 4.759,2.809 4.793,3.668 4.617,4.287 L 4.561,4.482 4.365,4.543 C 4.15,4.609 3.914,4.646 3.685,4.646 3.247,4.646 2.876,4.518 2.642,4.285 2.588,4.23 2.547,4.168 2.498,4.092 2.49,4.078 2.483,4.064 2.476,4.051 2.446,4.053 2.412,4.055 2.378,4.055 L 2.234,4.049 C 2.21,4.049 2.183,4.047 2.161,4.045 2.134,4.09 2.104,4.139 2.063,4.186 1.824,4.479 1.399,4.646 0.898,4.646 0.669,4.646 0.439,4.609 0.232,4.539 L 0.034,4.473 -0.012,4.273 C -0.158,3.684 -0.158,2.896 0.278,2.455 0.337,2.393 0.408,2.352 0.472,2.313 L 0.479,2.305 V 2.277 c 0,-0.05 0,-0.099 0.004,-0.146 C 0.486,2.09 0.491,2.051 0.496,2.012 0.447,1.98 0.394,1.943 0.34,1.895 -0.151,1.461 -0.181,0.607 0,0" />
      </g>
      <g
         transform="matrix(2.5769232,0,0,2.7876069,282.16269,498.82627)"
         id="g1216">
        <path
           id="path1218"
           style="fill:#ffffff;fill-opacity:1;fill-rule:evenodd;stroke:none"
           d="m 0,0 c 0.012,0.1 0.021,0.195 0.026,0.295 0.049,0.029 0.088,0.059 0.13,0.094 0.505,0.449 0.505,1.295 0.349,1.884 L 0.451,2.48 0.249,2.539 c -0.223,0.066 -0.459,0.1 -0.684,0.1 -0.297,0 -0.717,-0.059 -1.023,-0.344 C -1.521,2.234 -1.57,2.16 -1.619,2.092 L -1.653,2.041 H -1.68 -1.731 C -1.772,2.039 -1.812,2.035 -1.849,2.035 L -1.961,2.039 C -2,2.104 -2.049,2.182 -2.124,2.258 -2.366,2.504 -2.749,2.639 -3.208,2.639 -3.438,2.639 -3.67,2.602 -3.877,2.537 L -4.07,2.473 -4.121,2.279 C -4.302,1.635 -4.258,0.799 -3.763,0.377 -3.724,0.344 -3.685,0.316 -3.643,0.295 -3.638,0.199 -3.628,0.107 -3.621,0.014 V 0.008 C -3.665,-0.021 -3.711,-0.051 -3.75,-0.088 -4.275,-0.533 -4.302,-1.402 -4.109,-2.02 l 0.058,-0.193 0.196,-0.053 c 0.212,-0.064 0.439,-0.095 0.662,-0.095 0.473,0 0.864,0.146 1.1,0.416 0.067,0.072 0.106,0.142 0.14,0.201 0.095,-0.002 0.187,-0.006 0.28,-0.01 0.154,-0.217 0.36,-0.422 0.692,-0.529 0.336,-0.108 0.817,-0.098 1.217,0.015 l 0.201,0.055 0.058,0.199 C 0.676,-1.402 0.649,-0.547 0.163,-0.117 0.104,-0.066 0.046,-0.029 0,0" />
      </g>
      <g
         transform="matrix(2.5769232,0,0,2.7876069,269.3711,526.38119)"
         id="g1220">
        <path
           id="path1222"
           style="fill:#ffffff;fill-opacity:1;fill-rule:evenodd;stroke:none"
           d="m 0,0 c -0.124,0.1 -0.251,0.172 -0.373,0.244 -0.013,0.002 -0.018,0.008 -0.023,0.01 0.118,0.377 0.194,0.848 0.086,1.324 l -0.056,0.233 -0.237,0.05 C -1.179,1.977 -1.836,1.904 -2.256,1.672 -2.541,1.514 -2.746,1.301 -2.896,1.018 -3.171,0.479 -3.11,-0.262 -2.961,-0.793 -3.232,-1.492 -3.12,-2.451 -2.688,-2.924 -2.346,-3.303 -1.846,-3.5 -1.24,-3.5 c 0.174,0 0.359,0.016 0.552,0.049 l 0.237,0.043 0.058,0.232 c 0.098,0.377 0.083,0.813 -0.042,1.295 0.443,0.231 0.77,0.512 0.999,0.856 l 0.144,0.211 -0.144,0.21 C 0.413,-0.379 0.223,-0.176 0,0" />
      </g>
      <g
         transform="matrix(2.5769232,0,0,2.7876069,308.18343,480.1624)"
         id="g1224">
        <path
           id="path1226"
           style="fill:#ffffff;fill-opacity:1;fill-rule:evenodd;stroke:none"
           d="M 0,0 C 0.01,0.098 0.02,0.195 0.029,0.295 0.078,0.328 0.132,0.367 0.19,0.422 0.659,0.871 0.654,1.697 0.503,2.27 L 0.449,2.475 0.251,2.533 C 0.031,2.602 -0.203,2.637 -0.433,2.637 -0.903,2.637 -1.289,2.49 -1.526,2.223 -1.575,2.168 -1.611,2.105 -1.648,2.045 H -1.722 L -1.888,2.039 c -0.024,0 -0.049,-0.002 -0.075,-0.002 -0.057,0.09 -0.127,0.197 -0.242,0.295 -0.315,0.264 -0.759,0.305 -0.998,0.305 -0.239,0 -0.472,-0.035 -0.679,-0.108 L -4.07,2.467 -4.126,2.273 C -4.29,1.656 -4.258,0.844 -3.812,0.42 -3.75,0.365 -3.694,0.326 -3.647,0.293 -3.641,0.219 -3.633,0.141 -3.628,0.064 -3.626,0.043 -3.623,0.021 -3.621,0 c -0.064,-0.043 -0.127,-0.09 -0.2,-0.148 -0.498,-0.448 -0.445,-1.387 -0.293,-1.873 l 0.063,-0.198 0.196,-0.052 c 0.212,-0.059 0.439,-0.092 0.659,-0.092 0.444,0 0.82,0.131 1.062,0.373 0.085,0.086 0.139,0.174 0.181,0.242 0.095,0 0.19,-0.002 0.285,-0.006 0.029,-0.053 0.068,-0.111 0.12,-0.172 0.239,-0.283 0.64,-0.439 1.123,-0.439 0.232,0 0.466,0.037 0.681,0.107 l 0.193,0.061 0.054,0.199 C 0.659,-1.41 0.664,-0.563 0.153,-0.113 0.1,-0.064 0.046,-0.029 0,0" />
      </g>
      <g
         transform="matrix(2.5769232,0,0,2.7876069,327.08645,600.66646)"
         id="g1228">
        <path
           id="path1230"
           style="fill:#231f20;fill-opacity:1;fill-rule:evenodd;stroke:none"
           d="M 0,0 C 0.123,-0.445 0.25,-0.943 0.201,-1.541 0.194,-1.611 0.165,-1.711 0.174,-1.76 0.184,-1.812 0.289,-1.871 0.34,-1.916 0.736,-2.258 1.039,-2.701 1.299,-3.162 1,-3.713 0.621,-4.191 0.121,-4.549 c 0.08,-0.638 -0.062,-1.232 -0.208,-1.73 -0.479,-0.133 -0.997,-0.237 -1.558,-0.194 -1.563,0.121 -2.463,1.198 -2.231,2.989 -0.608,-0.176 -1.026,-0.528 -1.358,-0.985 -0.334,-0.459 -0.527,-1.043 -0.376,-1.845 0.235,-1.247 1.111,-2.081 2.684,-1.987 0.705,0.041 1.294,0.264 1.826,0.514 0.542,0.25 1.047,0.512 1.562,0.783 1.036,0.549 2.121,1.047 3.702,0.951 -0.074,0.221 -0.14,0.485 -0.164,0.774 -0.051,0.615 0.139,1.131 0.405,1.49 0.136,0.178 0.307,0.381 0.552,0.383 C 5.018,-3.531 4.942,-3.664 4.906,-3.779 4.786,-4.127 4.676,-4.547 4.74,-5.008 4.793,-5.424 4.935,-5.744 5.147,-6.027 5.21,-6.105 5.289,-6.24 5.367,-6.279 c 0.091,-0.049 0.219,-0.057 0.322,-0.088 1.517,-0.488 2.642,-1.444 3.335,-2.77 0.364,-0.691 0.644,-1.568 0.644,-2.613 0,-1.596 -0.47,-2.764 -1.183,-3.695 -0.239,-0.309 -0.472,-0.612 -0.61,-1 -0.279,-0.77 -0.34,-2 -0.059,-2.823 0.261,-0.779 0.82,-1.378 1.738,-1.515 1.086,-0.162 1.779,0.375 2.214,0.984 -1.016,0.041 -1.689,0.485 -2.072,1.184 -0.191,0.349 -0.306,0.818 -0.306,1.324 0,0.506 0.108,0.977 0.22,1.404 0.501,0.137 1.133,0.274 1.765,0.172 0.064,0.039 0.103,0.104 0.152,0.158 0.327,0.389 0.773,0.704 1.245,0.967 0.552,-0.308 1.03,-0.685 1.392,-1.187 0.636,0.091 1.24,-0.059 1.725,-0.207 0.132,-0.487 0.239,-1.039 0.191,-1.602 -0.134,-1.576 -1.316,-2.469 -3.125,-2.16 -0.232,-0.514 -0.533,-0.967 -0.943,-1.316 -0.407,-0.348 -0.913,-0.606 -1.543,-0.715 -1.481,-0.254 -2.546,0.439 -3.151,1.248 -0.322,-0.573 -0.796,-1.024 -1.561,-1.178 -0.151,-0.029 -0.715,-0.086 -0.739,0.098 -0.015,0.099 0.163,0.156 0.227,0.191 0.261,0.137 0.551,0.293 0.756,0.469 0.287,0.248 0.54,0.603 0.663,0.984 0.07,0.221 0.128,0.475 0.087,0.725 -0.037,0.211 -0.097,0.445 -0.122,0.695 -0.051,0.518 -0.017,1.029 0.061,1.543 -0.679,-0.361 -1.491,-0.68 -2.448,-0.777 -1.034,-0.104 -2.005,0.086 -2.762,0.42 -0.742,0.326 -1.379,0.804 -1.872,1.365 -0.428,0.49 -0.799,1.105 -0.984,1.848 -0.037,0.148 -0.054,0.232 -0.071,0.437 -0.081,1.172 -0.698,1.68 -1.497,2.08 -0.093,0.047 -0.3,0.119 -0.288,0.217 0.015,0.137 0.413,0.142 0.55,0.133 0.627,-0.047 1.037,-0.373 1.374,-0.672 0.366,1.094 1.064,1.851 2.205,2.17 0.049,0.185 0.104,0.369 0.166,0.547 0.402,0.136 0.908,0.31 1.455,0.297 0.544,-0.014 1.008,-0.172 1.315,-0.436 0.318,0.252 0.775,0.43 1.324,0.436 0.547,0.005 1.048,-0.157 1.455,-0.297 0.12,-0.422 0.301,-0.938 0.278,-1.496 -0.021,-0.555 -0.163,-1.028 -0.436,-1.342 0.258,-0.323 0.426,-0.789 0.436,-1.352 0.01,-0.566 -0.148,-1.076 -0.278,-1.506 -0.405,-0.146 -0.904,-0.3 -1.455,-0.297 -0.549,0.004 -1.006,0.18 -1.316,0.436 -0.315,-0.248 -0.774,-0.426 -1.323,-0.436 -0.547,-0.007 -1.05,0.157 -1.455,0.297 -0.14,0.426 -0.286,0.938 -0.276,1.506 0.003,0.557 0.173,1.029 0.434,1.344 -0.234,0.295 -0.392,0.668 -0.431,1.166 -0.708,-0.348 -1.156,-0.996 -1.253,-1.969 -0.105,-1.053 0.346,-1.849 0.82,-2.402 0.706,-0.828 1.8,-1.518 3.362,-1.5 0.484,0.006 0.969,0.088 1.394,0.217 1.57,0.484 2.801,1.605 3.303,3.172 0.129,0.412 0.225,0.875 0.237,1.384 0.029,1.553 -0.564,2.727 -1.345,3.51 -0.516,0.516 -1.219,0.941 -2.046,1.195 -0.41,0.127 -0.901,0.231 -1.367,0.25 -0.516,0.026 -0.979,-0.06 -1.421,-0.189 -1.634,-0.482 -2.815,-1.559 -4.519,-1.953 -0.45,-0.102 -0.977,-0.16 -1.492,-0.113 -1.438,0.132 -2.356,0.916 -2.832,2.021 -0.156,0.369 -0.283,0.809 -0.312,1.307 -0.015,0.285 0.021,0.537 0.024,0.783 0.022,0.996 -0.598,1.627 -1.253,1.986 -0.136,0.074 -0.49,0.195 -0.49,0.315 0.01,0.179 0.564,0.146 0.734,0.115 0.746,-0.147 1.224,-0.602 1.551,-1.143 0.518,0.715 1.197,1.272 2.212,1.489 -0.047,1.681 0.889,2.584 2.456,2.656 C -0.885,0.244 -0.456,0.1 0,0 M -2.744,-1.523 C -2.91,-1.877 -2.91,-2.33 -2.832,-2.742 c 0.02,-0.106 0.093,-0.291 0.088,-0.395 -0.005,-0.066 -0.053,-0.14 -0.07,-0.209 -0.057,-0.238 -0.093,-0.47 -0.086,-0.757 0.023,-1.051 0.83,-1.502 1.976,-1.325 0.119,0.489 0,1.014 -0.13,1.405 0.457,0.207 0.867,0.466 1.14,0.861 -0.258,0.416 -0.676,0.674 -1.116,0.916 0.159,0.359 0.291,0.877 0.186,1.391 -0.886,0.183 -1.626,-0.088 -1.9,-0.668 m 6.048,-8.756 c -0.276,0.336 -0.93,0.404 -1.421,0.234 -0.132,-0.527 -0.112,-1.156 0.191,-1.461 0.073,-0.074 0.254,-0.146 0.288,-0.228 0.034,-0.09 0.014,-0.225 0.026,-0.328 0.008,-0.12 0.028,-0.229 0.025,-0.333 -0.095,-0.093 -0.198,-0.13 -0.295,-0.218 -0.342,-0.303 -0.386,-0.977 -0.228,-1.506 0.491,-0.16 1.118,-0.111 1.395,0.217 0.09,0.105 0.122,0.218 0.219,0.322 0.207,-0.02 0.456,-0.006 0.669,-0.025 0.11,-0.104 0.144,-0.231 0.251,-0.34 0.291,-0.291 0.894,-0.325 1.361,-0.174 0.143,0.523 0.117,1.168 -0.191,1.471 -0.061,0.06 -0.317,0.185 -0.342,0.263 -0.027,0.084 0.025,0.231 0.037,0.33 0.012,0.121 0.014,0.223 0.034,0.33 0.061,0.077 0.146,0.104 0.218,0.166 0.351,0.297 0.4,0.985 0.244,1.514 -0.477,0.15 -1.07,0.115 -1.351,-0.164 -0.059,-0.057 -0.185,-0.316 -0.261,-0.338 -0.076,-0.025 -0.178,0.002 -0.252,0 -0.151,-0.008 -0.288,-0.01 -0.429,-0.019 -0.078,0.089 -0.117,0.197 -0.188,0.287 m 8.55,-6.637 c -0.369,0.152 -0.872,0.283 -1.39,0.182 -0.156,-0.739 0.01,-1.416 0.433,-1.758 0.42,-0.342 1.271,-0.354 1.865,-0.131 0.066,-0.027 0.105,-0.059 0.166,-0.078 0.627,-0.194 1.321,-0.088 1.697,0.234 0.403,0.344 0.515,0.938 0.413,1.647 -0.484,0.129 -1.036,0.002 -1.416,-0.131 -0.194,0.471 -0.459,0.869 -0.85,1.142 -0.408,-0.236 -0.679,-0.677 -0.918,-1.107" />
      </g>
      <g
         transform="matrix(2.5769232,0,0,2.7876069,343.18215,504.36216)"
         id="g1232">
        <path
           id="path1234"
           style="fill:#231f20;fill-opacity:1;fill-rule:evenodd;stroke:none"
           d="m 0,0 c 0.276,-0.742 0.678,-1.642 1.072,-2.334 0.044,-0.078 0.132,-0.254 0.18,-0.269 0.074,-0.026 3.902,0 5.647,0 C 7.016,-4.027 6.57,-5.078 5.959,-5.843 5.341,-6.617 4.47,-7.191 3.276,-7.369 3.115,-8.58 2.568,-9.486 1.831,-10.131 1.088,-10.777 0.095,-11.224 -1.36,-11.142 v 6.386 c -0.32,0.389 -0.796,0.973 -1.147,1.303 -0.015,-0.078 0.014,-0.502 -0.003,-0.576 -0.207,-0.869 -0.596,-1.305 -1.289,-1.684 -0.393,-0.216 -0.874,-0.345 -1.436,-0.324 -1.011,0.041 -1.764,0.633 -2.187,1.324 -0.222,0.368 -0.401,0.803 -0.427,1.332 -0.029,0.579 0,1.168 0,1.762 v 1.811 c 0,0.08 -0.234,0.277 -0.32,0.365 -0.564,0.562 -1.106,1.137 -1.638,1.707 -0.215,0.234 -0.449,0.441 -0.664,0.672 -0.796,0.863 -1.543,1.613 -2.334,2.422 -0.032,0.031 -0.176,0.832 -0.203,0.865 0,0 -0.022,-0.268 -0.085,-0.578 -0.327,-1.237 -1.07,-2.061 -2.334,-2.36 -1.006,0.434 -1.722,1.293 -1.978,2.5 -0.298,1.416 0.191,2.711 0.908,3.395 -1.645,1.717 -3.235,3.377 -4.882,5.066 -0.077,0.077 -0.257,0.774 -0.332,0.85 -0.003,-0.018 0.036,-0.344 -0.003,-0.832 -0.059,-0.709 -0.51,-1.731 -2.082,-2.277 -0.081,-0.028 -0.191,-0.063 -0.245,-0.063 -0.107,0.004 -0.286,0.117 -0.4,0.184 -0.838,0.48 -1.424,1.334 -1.624,2.449 -0.119,0.685 -0.049,1.463 0.149,2.037 0.203,0.57 0.544,1.039 0.943,1.375 -1.143,1.191 -2.298,2.385 -3.45,3.582 -1.15,1.191 -2.227,2.457 -3.308,3.711 -1.074,1.24 -2.143,2.539 -3.086,3.945 -0.459,0.69 -0.921,1.422 -1.219,2.291 -0.151,0.446 -0.283,0.973 -0.182,1.508 0.075,0.412 0.161,0.631 0.466,0.838 0.161,0.109 0.346,0.037 0.549,-0.207 0.118,-0.143 0.635,-0.82 0.718,-0.777 0.061,0.031 -0.117,0.4 -0.223,0.658 -0.075,0.187 -0.143,0.588 0.082,0.705 0.346,0.18 0.807,-0.252 1.012,-0.465 0.762,-0.791 1.571,-1.459 2.518,-2.051 0.664,-0.414 1.354,-0.765 2.114,-1.027 0.583,-0.201 1.221,-0.373 1.97,-0.393 0.249,-0.005 0.508,0.006 0.794,0.026 3.681,-2.34 7.021,-5.08 10.138,-8.004 0.782,-0.733 1.529,-1.488 2.29,-2.248 0.249,-0.25 0.501,-0.51 0.743,-0.766 1.936,-2.08 3.852,-4.211 5.584,-6.508 1.73,-2.3 3.393,-4.677 4.831,-7.255 h 1.753 c 0.605,0 1.17,0.029 1.629,-0.096 C 1.648,5.194 2.251,4.608 2.578,3.807 2.756,3.369 2.841,2.826 2.778,2.325 2.714,1.821 2.543,1.424 2.307,1.071 1.87,0.418 1.34,0 0.688,-0.039 0.276,-0.062 0.063,0.006 0,0 m -10.645,15.096 c -0.928,1.08 -1.88,2.123 -2.837,3.172 -0.954,1.037 -1.984,2.012 -3,3.002 -1.009,0.994 -2.075,1.943 -3.152,2.859 -2.165,1.842 -4.441,3.586 -6.863,5.149 -0.2,-0.016 -0.427,-0.012 -0.654,0 -0.628,0.029 -1.18,0.14 -1.663,0.279 -1.926,0.551 -3.696,2.363 -5.034,3.578 -0.28,0.258 -0.303,-0.051 -0.241,-0.139 1.628,-2.433 3.761,-5.636 5.509,-7.873 0.096,-0.127 0.218,-0.211 0.174,-0.377 -0.132,-0.041 -0.218,0.082 -0.288,0.157 -0.224,0.252 -0.447,0.496 -0.662,0.742 -1.96,2.24 -3.828,4.615 -5.666,6.959 -0.047,0.056 -0.083,0.119 -0.13,0.174 -0.021,0.025 -0.08,-0.014 -0.09,-0.108 -0.066,-0.719 0.259,-1.195 0.53,-1.703 0.283,-0.533 0.61,-1.041 0.947,-1.516 0.686,-0.964 1.414,-1.882 2.151,-2.771 1.496,-1.789 4.649,-5.127 4.673,-5.15 0.349,-0.334 0.876,-0.721 1.516,-0.694 0.654,0.028 1.133,0.307 1.477,0.678 0.357,0.381 0.586,0.91 0.613,1.553 0.014,0.351 -0.056,0.664 -0.147,0.931 -0.08,0.227 -0.207,0.422 -0.295,0.639 -0.014,0.037 0.031,0.051 0.069,0.022 0.334,-0.297 0.615,-0.674 0.781,-1.149 0.187,-0.535 0.205,-1.264 0.01,-1.83 -0.342,-0.992 -1.102,-1.666 -2.249,-1.844 -0.049,-0.008 -0.792,-0.013 -0.84,-0.017 0.058,-0.067 1.035,-0.332 1.096,-0.397 0.588,-0.637 1.028,-1.078 1.599,-1.713 -0.456,-0.207 -0.886,-0.361 -1.193,-0.715 -0.298,-0.339 -0.508,-0.761 -0.584,-1.332 -0.159,-1.254 0.405,-2.191 1.135,-2.646 0.577,0.24 0.989,0.717 1.184,1.365 0.105,0.35 0.142,0.75 0.078,1.133 -0.06,0.355 -0.178,0.695 -0.254,1.027 -0.314,-0.295 -0.576,-0.664 -0.688,-1.211 -0.093,-0.457 -0.027,-0.888 0.122,-1.228 0.042,-0.098 0.149,-0.264 0.132,-0.346 -0.012,-0.041 -0.074,-0.033 -0.139,0.002 -0.101,0.057 -0.215,0.197 -0.278,0.301 -0.274,0.433 -0.435,1.029 -0.35,1.699 0.103,0.822 0.513,1.377 0.931,1.873 2.754,-2.877 5.563,-5.746 8.296,-8.613 -0.396,-0.235 -0.777,-0.434 -1.048,-0.787 -0.264,-0.344 -0.445,-0.781 -0.495,-1.34 -0.057,-0.606 0.08,-1.129 0.28,-1.541 0.198,-0.42 0.488,-0.75 0.859,-0.977 0.858,0.366 1.436,1.287 1.265,2.518 -0.054,0.379 -0.105,0.769 -0.149,1.15 -0.219,-0.133 -0.38,-0.318 -0.532,-0.523 -0.144,-0.195 -0.273,-0.438 -0.356,-0.715 -0.166,-0.557 -0.071,-1.158 0.148,-1.561 0.03,-0.048 0.083,-0.146 0.069,-0.181 -0.012,-0.026 -0.095,-0.004 -0.149,0.027 -0.061,0.035 -0.088,0.065 -0.144,0.133 -0.357,0.437 -0.588,1.035 -0.481,1.834 0.108,0.814 0.495,1.393 0.949,1.848 0.575,-0.735 1.265,-1.407 1.934,-2.1 1.326,-1.375 2.612,-2.723 3.963,-4.103 0.319,-0.327 0.661,-0.674 0.993,-1.028 0.23,-0.248 0.498,-0.514 0.74,-0.775 0.078,-0.086 0.215,-0.19 0.244,-0.262 0.032,-0.074 0,-0.266 0,-0.373 v -2.518 c 0,-0.468 -0.042,-1.011 0.054,-1.386 0.178,-0.715 0.713,-1.285 1.516,-1.367 0.449,-0.045 0.833,0.095 1.121,0.296 0.265,0.186 0.503,0.446 0.646,0.793 0.098,0.243 0.137,0.575 0.137,0.94 0,0.119 0.024,0.265 0,0.367 -0.017,0.074 -0.142,0.201 -0.197,0.279 -0.186,0.239 -0.366,0.446 -0.55,0.653 -0.039,0.041 -0.08,0.103 -0.117,0.095 -0.03,-0.398 -0.066,-0.789 -0.1,-1.211 C -4.336,-3 -4.338,-3.127 -4.363,-3.404 -4.368,-3.47 -4.38,-3.578 -4.39,-3.711 -4.4,-3.8 -4.395,-3.961 -4.488,-3.947 c -0.068,0.012 -0.065,0.205 -0.078,0.324 -0.06,0.791 -0.117,1.467 -0.181,2.246 -0.011,0.127 -0.002,0.293 -0.036,0.377 -0.027,0.073 -0.317,0.295 -0.356,0.33 -0.039,0.034 -0.088,0.088 -0.12,0.078 -0.075,-0.906 -0.142,-1.863 -0.21,-2.779 -0.007,-0.094 0.003,-0.34 -0.088,-0.34 -0.103,-0.002 -0.08,0.309 -0.09,0.401 -0.073,1.004 -0.151,2.01 -0.225,2.996 -0.004,0.068 -0.032,0.236 -0.051,0.25 C -6.021,0 -6.121,0.073 -6.218,0.141 -6.314,0.205 -6.433,0.26 -6.501,0.356 c -0.018,0.021 0.021,0.056 0.05,0.049 1.387,-0.368 2.484,-1.112 3.446,-1.948 0.244,-0.211 0.461,-0.453 0.698,-0.677 0.588,-0.563 1.142,-1.153 1.66,-1.788 0.07,-0.078 0.288,-0.3 0.308,-0.39 0.019,-0.094 0,-0.231 0,-0.35 v -5.33 c 1.281,0.278 2.126,1.08 2.48,2.264 0.127,0.418 0.153,0.881 0.158,1.43 1.099,-0.077 1.851,0.261 2.422,0.73 0.567,0.469 0.989,1.146 1.133,2.031 H 0.671 C 0.014,-2.677 -0.471,-1.562 -0.93,-0.42 -1.365,0.655 -1.792,1.75 -2.266,2.762 -2.292,2.825 -2.461,3.178 -2.51,3.276 -2.627,3.524 -2.749,3.774 -2.867,4.008 -2.886,4.051 -2.937,4.094 -2.917,4.147 -2.701,4.061 -2.574,3.891 -2.422,3.727 -2.374,3.676 -2.317,3.598 -2.266,3.58 -2.156,3.545 -1.99,3.565 -1.846,3.553 -0.984,3.487 -0.193,3.418 0.671,3.354 0.756,3.346 1.033,3.356 1.028,3.258 1.025,3.203 0.971,3.194 0.916,3.188 0.691,3.16 0.463,3.155 0.244,3.135 -0.435,3.08 -1.111,3.037 -1.775,2.979 -1.721,2.889 -1.656,2.819 -1.584,2.727 -1.524,2.647 -1.46,2.508 -1.379,2.475 -1.309,2.448 -1.179,2.45 -1.072,2.44 -0.406,2.379 0.161,2.321 0.818,2.264 0.94,2.254 1.098,2.27 1.079,2.158 1.069,2.078 0.696,2.08 0.593,2.075 0.037,2.022 -0.491,1.967 -0.994,1.924 -0.806,1.6 -0.391,0.873 -0.347,0.871 0.6,0.801 1.157,1.16 1.506,1.707 1.687,1.991 1.804,2.385 1.787,2.78 1.752,3.561 1.269,4.137 0.696,4.383 0.369,4.522 -0.066,4.512 -0.523,4.512 h -2.7 c -2.163,3.832 -4.653,7.359 -7.422,10.584" />
      </g>
      <g
         transform="matrix(2.5769232,0,0,2.7876069,276.12288,578.58332)"
         id="g1236">
        <path
           id="path1238"
           style="fill:#231f20;fill-opacity:1;fill-rule:evenodd;stroke:none"
           d="m 0,0 c 0,-0.17 -0.137,-0.309 -0.308,-0.309 -0.169,0 -0.307,0.139 -0.307,0.309 0,0.17 0.138,0.307 0.307,0.307 C -0.137,0.307 0,0.17 0,0" />
      </g>
      <g
         transform="matrix(2.5769232,0,0,2.7876069,275.89019,582.3402)"
         id="g1240">
        <path
           id="path1242"
           style="fill:#231f20;fill-opacity:1;fill-rule:evenodd;stroke:none"
           d="m 0,0 c -0.606,0.112 -2.253,0.471 -2.256,0.469 -0.197,-0.055 0.054,-0.246 0.11,-0.3 0.327,-0.284 0.703,-0.524 0.835,-0.702 -0.171,-0.229 -0.276,-0.51 -0.276,-0.814 0,-0.757 0.615,-1.372 1.37,-1.372 0.757,0 1.369,0.615 1.369,1.372 0,0.68 -0.5,1.242 -1.152,1.347 m -0.217,-2.117 c -0.425,0 -0.767,0.346 -0.767,0.77 0,0.423 0.342,0.767 0.767,0.767 0.422,0 0.769,-0.344 0.769,-0.767 0,-0.424 -0.347,-0.77 -0.769,-0.77" />
      </g>
      <g
         transform="matrix(2.5769232,0,0,2.7876069,336.67052,568.76146)"
         id="g1244">
        <path
           id="path1246"
           style="fill:#231f20;fill-opacity:1;fill-rule:evenodd;stroke:none"
           d="M 0,0 C 0.539,0.043 0.938,-0.537 0.681,-1.063 0.518,-1.396 0.063,-1.555 -0.278,-1.367 -0.518,-1.236 -0.701,-0.934 -0.635,-0.574 -0.581,-0.273 -0.345,-0.029 0,0" />
      </g>
      <g
         transform="matrix(2.5769232,0,0,2.7876069,294.33501,560.91603)"
         id="g1248">
        <path
           id="path1250"
           style="fill:#231f20;fill-opacity:1;fill-rule:evenodd;stroke:none"
           d="m 0,0 c 0.032,-0.865 0.054,-1.736 0.098,-2.586 0.844,0.027 1.785,0.039 2.675,0.051 0,-0.887 0.015,-1.77 0.033,-2.647 0.84,0.008 1.764,0.004 2.629,0.016 0.019,-0.883 0.004,-1.795 0.012,-2.691 0.86,-0.01 1.731,-0.01 2.603,-0.008 -0.023,-0.899 0,-1.836 -0.028,-2.727 0.838,-0.031 1.717,-0.021 2.562,-0.043 -0.015,-0.922 -0.01,-1.865 -0.062,-2.754 0.801,-0.072 1.678,-0.066 2.51,-0.103 -0.021,-0.774 -0.063,-1.572 -0.138,-2.319 -0.025,-0.234 -0.042,-0.476 -0.14,-0.669 -0.08,0.039 -0.09,0.156 -0.105,0.234 -0.125,0.654 -0.11,1.476 -0.193,2.17 -0.84,-0.059 -1.804,-0.07 -2.707,-0.096 -0.018,0.881 -0.024,1.772 -0.061,2.631 -0.842,-0.02 -1.78,-0.018 -2.649,-0.035 0.002,0.898 -0.019,1.773 -0.018,2.674 H 4.399 c 0.018,0.884 0.005,1.8 0.008,2.701 -0.838,0.025 -1.712,0.021 -2.578,0.023 0.02,0.914 0.002,1.858 0.046,2.746 -0.827,0.043 -1.691,0.045 -2.544,0.063 0.015,0.951 0.027,1.91 0.103,2.803 -0.572,0.058 -1.226,0.087 -1.804,0.156 -0.184,0.023 -0.389,0.019 -0.521,0.131 0.166,0.107 0.389,0.115 0.599,0.138 C -1.577,-0.057 -0.771,-0.02 0,0" />
      </g>
      <g
         transform="matrix(2.5769232,0,0,2.7876069,269.80762,532.8914)"
         id="g1252">
        <path
           id="path1254"
           style="fill:#231f20;fill-opacity:1;fill-rule:evenodd;stroke:none"
           d="M 0,0 C 0.151,-0.49 0.283,-1.15 0.172,-1.767 0.641,-2.141 1.003,-2.621 1.305,-3.16 0.993,-3.705 0.622,-4.193 0.119,-4.544 0.21,-5.187 0.058,-5.787 -0.091,-6.281 c -0.484,-0.125 -1.016,-0.233 -1.574,-0.19 -1.563,0.12 -2.469,1.311 -2.044,3.106 -0.74,-0.241 -1.418,-0.836 -1.658,-1.547 -0.295,-0.879 0.005,-1.752 0.425,-2.291 0.225,-0.287 0.498,-0.498 0.847,-0.645 0.725,-0.298 1.85,-0.103 2.534,0.115 0.317,0.1 0.657,0.21 0.931,0.374 0.036,0.022 0.075,0.039 0.158,0.088 0.916,0.625 2.021,1.13 3.535,1.088 1.453,-0.04 2.583,-0.516 3.447,-1.167 0.86,-0.644 1.566,-1.552 1.973,-2.66 0.205,-0.558 0.342,-1.24 0.34,-1.966 -0.008,-0.721 -0.169,-1.368 -0.366,-1.941 0.844,0.21 1.66,-0.052 2.143,-0.429 0.163,-0.127 0.354,-0.296 0.347,-0.53 -0.147,-0.04 -0.293,0.038 -0.428,0.085 -0.386,0.139 -0.847,0.254 -1.384,0.191 -0.886,-0.097 -1.243,-0.474 -1.428,-0.722 -0.505,-0.797 -0.974,-1.654 -1.228,-2.717 -0.127,-0.544 -0.203,-1.193 -0.14,-1.777 0.176,-1.7 1.216,-2.836 2.84,-3.075 1.28,-0.189 2.458,0.411 3.01,1.206 -0.664,-0.2 -1.398,-0.122 -1.877,0.059 -0.151,0.416 -0.281,0.927 -0.281,1.498 0,0.564 0.176,1.028 0.43,1.349 -0.254,0.322 -0.43,0.783 -0.43,1.351 0,0.572 0.13,1.071 0.268,1.498 0.409,0.137 0.918,0.305 1.468,0.295 0.544,-0.009 1.001,-0.179 1.314,-0.435 0.312,0.254 0.763,0.426 1.325,0.426 0.559,0 1.058,-0.137 1.453,-0.295 0.144,-0.428 0.271,-0.93 0.271,-1.498 0,-0.555 -0.173,-1.021 -0.427,-1.332 0.249,-0.329 0.427,-0.788 0.427,-1.359 0,-0.571 -0.127,-1.082 -0.279,-1.498 -0.625,-0.282 -1.899,-0.411 -2.404,0.161 -0.306,-0.912 -0.991,-1.627 -1.741,-2.025 -0.759,-0.402 -1.851,-0.578 -2.927,-0.367 -0.957,0.185 -1.688,0.629 -2.269,1.218 -0.558,0.575 -0.968,1.406 -1.13,2.354 -0.185,1.096 -0.007,2.187 0.261,3.064 0.272,0.877 0.723,1.645 1.143,2.345 0.444,0.739 0.884,1.427 0.991,2.489 0.117,1.132 -0.215,2.11 -0.617,2.807 -0.42,0.736 -1.009,1.305 -1.751,1.732 -0.728,0.42 -1.709,0.707 -2.822,0.629 C 1.528,-7.297 0.7,-7.656 0.041,-8.16 c -0.65,-0.498 -1.172,-1.155 -1.526,-1.951 -0.178,-0.408 -0.315,-0.86 -0.381,-1.36 -0.071,-0.545 -0.034,-1.097 0.079,-1.595 0.207,-0.91 0.668,-1.68 1.237,-2.246 0.552,-0.551 1.267,-1.116 2.29,-1.194 0.564,-0.043 1.025,0.117 1.377,0.35 0.354,0.232 0.594,0.523 0.774,0.957 -0.356,0.082 -0.667,0.209 -0.906,0.408 -0.314,-0.258 -0.769,-0.418 -1.315,-0.435 -0.55,-0.014 -1.043,0.158 -1.456,0.289 -0.146,0.423 -0.278,0.933 -0.278,1.505 0,0.567 0.176,1.03 0.427,1.352 -0.256,0.322 -0.42,0.795 -0.435,1.35 -0.011,0.558 0.152,1.072 0.279,1.498 0.41,0.15 0.897,0.287 1.463,0.287 0.556,0 1.001,-0.178 1.315,-0.426 0.315,0.248 0.762,0.426 1.316,0.426 0.557,0 1.047,-0.138 1.455,-0.287 0.147,-0.42 0.276,-0.93 0.276,-1.498 0,-0.559 -0.171,-1.03 -0.425,-1.342 0.249,-0.33 0.425,-0.786 0.425,-1.36 0,-0.572 -0.129,-1.08 -0.276,-1.505 -0.261,-0.079 -0.505,-0.17 -0.784,-0.227 -0.187,-0.766 -0.607,-1.363 -1.176,-1.77 -0.562,-0.396 -1.333,-0.683 -2.307,-0.574 0.166,-0.433 0.217,-1.092 0.06,-1.613 -0.102,-0.328 -0.297,-0.67 -0.551,-0.879 -0.08,-0.07 -0.191,-0.149 -0.31,-0.119 -0.066,0.118 0.005,0.258 0.044,0.373 0.109,0.349 0.28,0.758 0.168,1.229 -0.264,1.152 -0.822,1.466 -0.925,1.525 -1.191,0.682 -2.109,1.725 -2.597,3.115 -0.269,0.771 -0.374,1.801 -0.228,2.738 0.137,0.879 0.464,1.618 0.853,2.239 -0.728,-0.137 -1.573,-0.182 -2.212,0.008 -0.62,0.181 -1.117,0.544 -1.483,0.984 -0.356,0.433 -0.654,0.998 -0.761,1.697 -0.1,0.611 -0.032,1.274 0.173,1.787 0.039,0.096 0.129,0.328 0.122,0.408 -0.068,0.899 -0.745,1.624 -1.492,2.015 -0.085,0.044 -0.3,0.109 -0.295,0.209 0.002,0.107 0.23,0.132 0.382,0.138 0.492,0.017 0.878,-0.168 1.178,-0.377 0.428,-0.293 0.718,-0.67 0.906,-1.181 0.407,0.349 1.003,0.691 1.685,0.804 0,0.043 -0.01,0.797 0.132,1.183 0.332,0.892 1.007,1.392 2.135,1.444 C -0.938,0.248 -0.472,0.121 0,0 M -2.242,-0.992 C -2.45,-1.107 -2.613,-1.264 -2.73,-1.49 c -0.223,-0.434 -0.181,-1.121 0,-1.664 -0.283,-0.567 -0.21,-1.457 0.149,-1.854 0.361,-0.396 0.945,-0.533 1.658,-0.408 0.124,0.483 0,1.02 -0.132,1.4 0.469,0.202 0.871,0.465 1.14,0.862 -0.137,0.203 -0.3,0.375 -0.489,0.525 -0.19,0.153 -0.42,0.244 -0.62,0.391 0.156,0.371 0.293,0.888 0.179,1.394 -0.498,0.102 -1.055,0.041 -1.397,-0.148 m 4.644,-9.233 c -0.283,0.292 -0.911,0.333 -1.37,0.183 -0.147,-0.544 -0.105,-1.222 0.247,-1.516 0.078,-0.067 0.166,-0.091 0.234,-0.174 0.015,-0.225 0.036,-0.442 0.054,-0.662 -0.088,-0.087 -0.188,-0.122 -0.281,-0.2 -0.359,-0.306 -0.412,-0.986 -0.241,-1.533 0.488,-0.142 1.098,-0.107 1.377,0.21 0.094,0.109 0.124,0.227 0.234,0.329 0.229,0 0.454,-0.01 0.676,-0.017 0.139,-0.235 0.296,-0.444 0.593,-0.539 0.293,-0.094 0.696,-0.071 1.003,0.017 0.155,0.52 0.122,1.205 -0.219,1.508 -0.105,0.09 -0.22,0.125 -0.31,0.232 0.026,0.217 0.046,0.44 0.068,0.664 0.074,0.074 0.159,0.108 0.235,0.174 0.344,0.301 0.378,0.967 0.234,1.507 -0.478,0.14 -1.048,0.114 -1.343,-0.157 -0.037,-0.037 -0.081,-0.104 -0.129,-0.174 -0.04,-0.059 -0.095,-0.16 -0.139,-0.176 -0.054,-0.017 -0.169,-0.004 -0.244,-0.008 -0.169,-0.009 -0.298,0.006 -0.435,-0.009 -0.1,0.105 -0.144,0.238 -0.244,0.341 m 10.041,-6.646 c -0.29,0.248 -0.898,0.27 -1.313,0.131 -0.139,-0.518 -0.113,-1.177 0.209,-1.483 0.088,-0.082 0.186,-0.117 0.272,-0.207 0.015,-0.224 0.034,-0.441 0.051,-0.664 -0.11,-0.088 -0.232,-0.164 -0.339,-0.252 -0.313,-0.277 -0.335,-1.005 -0.184,-1.48 0.477,-0.134 1.063,-0.108 1.351,0.185 0.112,0.114 0.146,0.244 0.261,0.356 0.229,0 0.459,-0.008 0.678,-0.02 0.083,-0.094 0.12,-0.199 0.203,-0.295 0.276,-0.33 0.909,-0.378 1.402,-0.216 0.143,0.542 0.107,1.203 -0.237,1.506 -0.1,0.089 -0.21,0.12 -0.303,0.226 0.027,0.215 0.047,0.44 0.068,0.663 0.083,0.079 0.176,0.12 0.262,0.198 0.319,0.309 0.344,0.961 0.21,1.483 -0.501,0.153 -1.112,0.109 -1.387,-0.203 -0.066,-0.073 -0.146,-0.278 -0.227,-0.303 -0.069,-0.021 -0.164,0.004 -0.235,0 -0.156,-0.005 -0.298,-0.01 -0.444,-0.016 -0.108,0.125 -0.168,0.281 -0.298,0.391" />
      </g>
      <g
         transform="matrix(2.5769232,0,0,2.7876069,277.05416,500.96048)"
         id="g1256">
        <path
           id="path1258"
           style="fill:#231f20;fill-opacity:1;fill-rule:evenodd;stroke:none"
           d="M 0,0 C 0.485,0.068 0.854,-0.295 0.808,-0.791 0.776,-1.178 0.449,-1.48 0.026,-1.438 c -0.363,0.04 -0.615,0.35 -0.62,0.715 -0.002,0.157 0.069,0.334 0.106,0.395 C -0.398,-0.176 -0.242,-0.031 0,0" />
      </g>
      <g
         transform="matrix(2.5769232,0,0,2.7876069,346.35925,489.54326)"
         id="g1260">
        <path
           id="path1262"
           style="fill:#231f20;fill-opacity:1;fill-rule:evenodd;stroke:none"
           d="m 0,0 c -0.125,-0.977 -0.242,-1.975 -0.366,-2.979 -0.015,-0.105 -0.025,-0.365 -0.098,-0.375 -0.115,-0.015 -0.086,0.348 -0.088,0.444 -0.032,1.181 -0.042,2.41 -0.095,3.562 0.659,-0.029 1.213,0 1.848,0 0.635,0 1.277,0.016 1.87,0.043 C 3.146,0.701 3.337,0.74 3.342,0.645 3.347,0.574 3.286,0.576 3.176,0.559 2.131,0.373 1.045,0.178 0,0" />
      </g>
      <g
         transform="matrix(2.5769232,0,0,2.7876069,303.27619,482.31304)"
         id="g1264">
        <path
           id="path1266"
           style="fill:#231f20;fill-opacity:1;fill-rule:evenodd;stroke:none"
           d="m 0,0 c 0.234,0.012 0.42,-0.09 0.522,-0.189 0.374,-0.374 0.217,-1.192 -0.413,-1.256 -0.207,-0.022 -0.417,0.054 -0.547,0.174 -0.122,0.109 -0.236,0.255 -0.234,0.558 C -0.669,-0.303 -0.4,-0.018 0,0" />
      </g>
    </g>
  </g>
</svg>
