<svg width="268" height="186" viewBox="0 0 268 186" fill="none" xmlns="http://www.w3.org/2000/svg">
<path d="M58.2073 178.55C58.7027 173.752 59.4457 169.837 60.3127 168.196C56.9689 170.847 53.5012 173.246 49.7859 175.014C49.2905 178.676 49.0428 182.338 48.9189 186C51.5197 182.969 54.7396 180.444 58.2073 178.55Z" fill="#6FCBD0"/>
<path d="M73.6874 175.014C75.6689 169.837 78.8889 162.513 83.9665 153.295C87.9296 146.224 91.5211 140.542 94.6172 132.713C91.3972 135.996 88.1772 139.532 85.0811 143.067C80.8704 147.866 76.412 152.916 71.8297 157.715C68.7336 164.029 65.8852 170.468 64.1514 176.024C67.4952 175.014 70.7151 174.762 73.6874 175.014Z" fill="#6FCBD0"/>
<path d="M105.268 123.116C105.144 125.515 104.401 129.177 101.924 134.607C98.5803 142.183 93.6265 151.022 89.292 158.851C85.2051 166.175 82.109 171.731 80.1274 176.024C83.3474 177.035 86.072 178.424 88.0535 179.813C90.1589 175.267 93.7504 168.827 96.9703 163.145C107.993 143.32 114.804 127.788 113.689 118.318C111.089 119.328 108.24 120.969 105.268 123.116Z" fill="#6FCBD0"/>
<path d="M105.392 112.762C99.1996 114.024 87.3105 127.157 78.5176 137.132C65.6377 151.906 50.281 168.701 34.1812 170.847C36.9057 172.615 40.0019 174.888 43.3457 177.919C59.3216 172.489 72.9445 156.957 85.0813 143.067C94.8651 131.829 105.516 121.222 113.689 118.57C110.965 116.55 108.24 114.656 105.392 112.762Z" fill="#F7AB1B"/>
<path d="M91.1495 103.796C82.728 108.721 74.4304 118.191 65.7613 128.041C53.0053 142.562 35.667 160.872 19.4434 163.65C23.2825 165.165 26.874 166.68 30.7132 168.827C46.6892 163.271 60.3121 147.739 72.2012 134.102C81.9849 122.864 91.521 112.004 100.19 109.479C97.4655 107.585 94.3694 105.69 91.1495 103.796Z" fill="#F7AB1B"/>
<path d="M77.0314 95.5886C69.1054 100.766 61.3032 109.605 53.2533 118.949C40.4972 133.597 18.7006 156.452 1.85768 155.568C1.73384 155.568 1.3623 155.568 1.3623 155.568C5.94456 157.967 9.6599 159.609 13.1276 161.124C31.3327 157.462 46.3179 140.289 59.6932 125.01C69.2292 114.151 78.146 103.923 86.1959 100.892C83.0998 99.1242 80.1276 97.3564 77.0314 95.5886Z" fill="#F7AB1B"/>
<path d="M36.0388 84.9817C31.3327 101.776 18.9482 117.055 9.28836 128.798C1.48614 138.269 -1.73382 146.729 0.990763 154.305C0.990763 154.432 1.3623 155.442 1.48614 155.442C3.83919 155.694 6.31609 155.316 8.79298 154.684C8.79298 147.992 11.6414 141.552 17.0906 133.218C26.6266 118.697 43.2218 100.766 46.1941 79.1731C47.4325 70.0815 47.5564 60.8636 47.061 51.6456C43.5934 56.0652 40.6211 61.7475 38.7634 70.7128V70.5866C38.0203 75.3849 37.2773 80.4359 36.0388 84.9817Z" fill="#EE2A26"/>
<path d="M54.2439 44.5743C54.9869 54.8025 55.1108 65.1568 53.7485 75.0061C51.0239 94.5784 40.1256 110.994 30.5895 125.642C24.2735 135.238 18.7004 143.699 16.8428 151.401C21.5489 148.876 26.3788 145.34 30.9611 141.426C32.9426 138.016 35.2956 134.354 37.8964 130.566C47.4324 115.919 59.4454 97.8615 62.4176 76.2689C64.2753 63.1365 63.6561 49.499 62.2938 36.3666C59.693 39.5234 56.9685 42.0489 54.2439 44.5743Z" fill="#EE2A26"/>
<path d="M67.7431 27.78C69.6008 43.0591 71.2108 59.7271 68.9815 75.1324C67.6193 84.7291 64.5231 93.8208 60.5601 102.281C56.5971 110.741 51.7671 118.57 47.061 125.768C49.2902 123.369 51.2718 121.096 53.1294 118.949C58.9501 112.257 64.647 105.817 70.3438 100.766C73.6876 93.1894 76.4122 85.1079 77.6507 76.3951C80.3753 57.3279 77.7745 37.2505 75.5453 19.446C74.8022 13.89 74.0592 8.08147 73.6876 2.65173C72.8207 13.7637 70.5915 21.7189 67.7431 27.78Z" fill="#EE2A26"/>
<path d="M143.784 106.322H164.713L147.623 141.047H163.599V148.623H134.248L151.834 113.772H143.536C140.564 113.772 138.582 114.024 136.724 116.802C133.009 111.12 137.096 106.322 143.784 106.322ZM201.743 148.749V113.772C201.743 109.352 203.601 106.322 208.431 106.322H217.595C226.883 106.322 230.97 113.141 230.97 120.338C230.97 126.525 227.874 133.092 222.053 135.238L232.333 148.623H222.797L211.155 133.723C210.288 132.713 210.041 131.45 210.041 130.187C210.041 128.798 210.412 127.409 211.155 126.399C211.774 127.662 214.375 128.167 216.109 128.167C220.691 128.167 223.168 124.758 223.168 120.843C223.168 117.181 221.187 113.898 216.604 113.898H209.793V148.749H201.743ZM196.046 125.01C196.046 123.621 196.046 122.232 195.798 120.843C195.551 119.454 195.055 117.434 194.065 116.55C191.835 114.656 188.244 115.413 186.882 116.676C188.492 116.676 187.996 122.611 187.996 123.874V135.238C187.996 138.521 185.643 141.173 181.432 141.173H181.061C177.222 141.173 175.24 138.9 174.621 135.996C174.497 135.112 174.497 134.607 174.497 133.723V119.202C174.497 115.919 176.85 113.267 181.061 113.267H181.432C183.662 113.267 185.148 114.024 186.262 115.161L193.198 110.615C191.092 107.711 187.748 105.817 182.795 105.69C181.804 105.69 180.689 105.69 179.699 105.69C171.773 105.817 167.809 110.994 166.819 116.929C166.571 118.697 166.571 120.086 166.571 121.853V131.829C166.571 134.102 166.571 135.87 166.943 138.143C168.057 143.825 172.02 148.749 179.699 148.876C180.689 148.876 181.804 148.876 182.795 148.876C191.835 148.749 195.922 141.931 195.922 134.859L196.046 125.01ZM263.418 107.458C261.188 105.564 257.597 106.322 256.235 107.585C256.73 107.585 257.102 108.09 257.225 108.974C257.349 109.605 257.225 111.373 257.349 111.499C257.349 112.509 257.349 120.717 257.349 123.747C257.349 124.631 257.349 125.389 257.102 126.273C256.482 128.925 254.501 130.945 250.785 130.945H250.414C247.194 130.945 245.336 129.303 244.469 127.157C243.974 125.768 243.974 124.884 243.974 123.369V106.322H236.048V122.99C236.048 125.263 236.172 127.536 236.915 129.682C238.277 133.849 241.497 137.132 246.699 138.143V148.876H254.625V138.269C262.055 137.132 265.275 130.945 265.275 124.505V113.141C265.275 110.994 265.028 108.847 263.418 107.458ZM145.146 99.2505C145.146 96.725 147.127 94.7047 149.48 94.7047C151.957 94.7047 153.939 96.725 153.939 99.2505C153.939 101.776 151.834 103.796 149.48 103.796C147.127 103.67 145.146 101.523 145.146 99.2505Z" fill="#3C465F"/>
<path d="M134.124 172.994L136.601 159.862L140.812 169.332L145.022 159.862L147.252 172.994H145.394L144.279 165.67L140.688 173.499L137.344 165.67L135.982 172.994H134.124Z" fill="#3C465F"/>
<path d="M152.205 160.872H150.471V172.994H152.205V160.872Z" fill="#3C465F"/>
<path d="M162.856 170.09H157.778L156.416 172.994H154.435L160.379 160.114L166.076 172.994H164.094L162.856 170.09ZM162.113 168.322L160.379 164.155L158.521 168.322H162.113Z" fill="#3C465F"/>
<path d="M174.992 162.64L173.506 163.523C173.259 163.018 173.011 162.766 172.763 162.513C172.516 162.387 172.144 162.261 171.772 162.261C171.277 162.261 170.906 162.387 170.534 162.64C170.162 162.892 170.039 163.271 170.039 163.776C170.039 164.407 170.534 164.912 171.401 165.165L172.639 165.67C173.63 166.049 174.373 166.554 174.745 167.185C175.24 167.69 175.364 168.448 175.364 169.332C175.364 170.468 174.992 171.352 174.249 172.11C173.506 172.868 172.639 173.246 171.525 173.246C170.534 173.246 169.667 172.994 168.924 172.363C168.305 171.731 167.809 170.847 167.686 169.711L169.543 169.332C169.667 170.09 169.791 170.595 170.039 170.847C170.41 171.352 170.906 171.605 171.649 171.605C172.144 171.605 172.639 171.479 173.011 171.1C173.382 170.721 173.506 170.216 173.506 169.711C173.506 169.458 173.506 169.206 173.382 169.079C173.259 168.827 173.259 168.701 173.135 168.574C173.011 168.448 172.887 168.322 172.639 168.069C172.392 167.943 172.144 167.817 171.896 167.69L170.782 167.185C169.172 166.428 168.305 165.418 168.305 164.155C168.305 163.271 168.676 162.513 169.296 161.882C170.039 161.251 170.782 160.998 171.896 160.998C173.135 160.619 174.249 161.251 174.992 162.64Z" fill="#3C465F"/>
<path d="M181.556 162.513V172.994H179.699V162.513H176.974V160.872H184.281V162.513H181.556Z" fill="#3C465F"/>
<path d="M186.015 166.807C186.015 165.039 186.634 163.65 187.872 162.387C189.111 161.124 190.597 160.493 192.331 160.493C194.065 160.493 195.551 161.124 196.665 162.387C197.78 163.65 198.523 165.165 198.523 166.807C198.523 168.574 197.904 170.09 196.665 171.226C195.427 172.489 193.941 172.994 192.207 172.994C190.721 172.994 189.235 172.489 187.996 171.352C186.634 170.342 186.015 168.827 186.015 166.807ZM187.748 166.933C187.748 168.322 188.244 169.332 189.111 170.216C189.978 171.1 190.968 171.479 192.207 171.479C193.445 171.479 194.56 170.974 195.427 170.09C196.294 169.206 196.665 168.069 196.665 166.807C196.665 165.544 196.294 164.407 195.427 163.523C194.56 162.64 193.569 162.134 192.331 162.134C191.092 162.134 189.978 162.64 189.235 163.523C188.244 164.534 187.748 165.544 187.748 166.933Z" fill="#3C465F"/>
<path d="M206.449 166.807C206.449 165.039 207.068 163.65 208.307 162.387C209.545 161.124 211.031 160.493 212.765 160.493C214.499 160.493 215.985 161.124 217.1 162.387C218.338 163.65 218.958 165.165 218.958 166.807C218.958 168.574 218.338 170.09 217.1 171.226C215.861 172.489 214.375 172.994 212.641 172.994C211.155 172.994 209.669 172.489 208.431 171.352C207.068 170.342 206.449 168.827 206.449 166.807ZM208.183 166.933C208.183 168.322 208.678 169.332 209.545 170.216C210.412 171.1 211.403 171.479 212.641 171.479C213.88 171.479 214.995 170.974 215.861 170.09C216.728 169.206 217.1 168.069 217.1 166.807C217.1 165.544 216.728 164.407 215.861 163.523C214.995 162.64 214.004 162.134 212.765 162.134C211.527 162.134 210.412 162.64 209.669 163.523C208.678 164.534 208.183 165.544 208.183 166.933Z" fill="#3C465F"/>
<path d="M227.998 166.68H232.952V167.059C232.952 167.943 232.828 168.827 232.58 169.458C232.333 170.09 232.085 170.721 231.59 171.226C230.475 172.489 229.113 173.12 227.379 173.12C225.645 173.12 224.283 172.489 223.044 171.226C221.806 169.963 221.311 168.574 221.311 166.807C221.311 165.039 221.93 163.523 223.168 162.261C224.407 160.998 225.893 160.367 227.627 160.367C228.617 160.367 229.36 160.619 230.227 160.998C230.97 161.377 231.714 162.008 232.457 162.892L231.218 164.155C230.227 162.766 228.989 162.134 227.627 162.134C226.388 162.134 225.274 162.64 224.407 163.523C223.54 164.407 223.168 165.544 223.168 166.807C223.168 168.196 223.664 169.332 224.531 170.09C225.397 170.847 226.388 171.352 227.379 171.352C228.246 171.352 229.113 171.1 229.732 170.468C230.475 169.837 230.847 169.079 230.847 168.196H227.874L227.998 166.68Z" fill="#3C465F"/>
<path d="M235.8 172.994V159.988L244.593 169.332V160.872H246.327V173.752L237.658 164.534V172.994H235.8Z" fill="#3C465F"/>
<path d="M251.652 160.872H249.918V172.994H251.652V160.872Z" fill="#3C465F"/>
<path d="M262.303 170.09H257.226L255.863 172.994H253.882L259.826 160.114L265.523 172.994H263.542L262.303 170.09ZM261.56 168.322L259.826 164.155L257.969 168.322H261.56Z" fill="#3C465F"/>
</svg>
